<mxfile host="app.diagrams.net" modified="2024-03-21T19:22:13.608Z" agent="Mozilla/5.0 (Windows NT 10.0; Win64; x64) AppleWebKit/537.36 (KHTML, like Gecko) Chrome/123.0.0.0 Safari/537.36 Edg/123.0.0.0" version="24.0.7" etag="91gYNjYtU3RUSJlsVABi" type="github">
  <diagram name="Page-1" id="lWm72rdte1JkfBvqCXhx">
    <mxGraphModel>
      <root>
        <mxCell id="0" />
        <mxCell id="1" parent="0" />
      </root>
    </mxGraphModel>
  </diagram>
</mxfile>
